<svg xmlns="http://www.w3.org/2000/svg" width="1664" height="1664" style="-ms-transform:rotate(360deg);-webkit-transform:rotate(360deg)" transform="rotate(360)"><path d="M1152 704q0-185-131.5-316.5T704 256 387.5 387.5 256 704t131.5 316.5T704 1152t316.5-131.5T1152 704zm512 832q0 52-38 90t-90 38q-54 0-90-38l-343-342q-179 124-399 124-143 0-273.5-55.5t-225-150-150-225T0 704t55.5-273.5 150-225 225-150T704 0t273.5 55.5 225 150 150 225T1408 704q0 220-124 399l343 343q37 37 37 90z" fill="#fff"/><path fill="rgba(0, 0, 0, 0)" d="M0 0h1664v1664H0z"/></svg>